<?xml version="1.0" encoding="UTF-8"?>
<svg id="Layer_2" data-name="Layer 2" xmlns="http://www.w3.org/2000/svg" viewBox="0 0 1544.13 1544.13">
  <defs>
    <style>
      .cls-1 {
        fill: #1d2846;
        stroke: #1d2846;
        stroke-miterlimit: 10;
      }
    </style>
  </defs>
  <g id="Layer_1-2" data-name="Layer 1">
    <g>
      <path class="cls-1" d="M1354.75.5H189.38C85.06.5.5,85.06.5,189.38v1165.37c0,104.32,84.56,188.88,188.88,188.88h1165.37c104.31,0,188.88-84.56,188.88-188.88V189.38c0-104.31-84.56-188.88-188.88-188.88ZM1350.11,1355.92h-248.48v-302.25l-215.35,302.25h-318.89l379.63-532.46h-287.14v-250.57h690.23v783.03ZM1186.54,515.76c-90.34,0-163.57-73.23-163.57-163.57s73.23-163.57,163.57-163.57,163.57,73.23,163.57,163.57-73.23,163.57-163.57,163.57Z"/>
      <polygon class="cls-1" points="1198.6 875.07 1276.32 765.36 1230.6 765.36 1290.03 655.65 1198.6 655.65 1168.1 799.65 1214.6 799.65 1198.6 875.07"/>
    </g>
  </g>
</svg>