<?xml version="1.0" encoding="UTF-8"?>
<svg id="Layer_2" data-name="Layer 2" xmlns="http://www.w3.org/2000/svg" viewBox="0 0 2417.61 1139.01">
  <defs>
    <style>
      .cls-1 {
        fill: #ff2ecc;
      }

      .cls-2 {
        fill: #f4f4f4;
      }
    </style>
  </defs>
  <g id="Layer_1-2" data-name="Layer 1">
    <g>
      <path class="cls-1" d="M1841.36,672.03l-103.27,144.94h-152.92l182.05-255.34h-128.75c-4.94,0-8.94-4-8.94-8.94v-111.22h330.99v375.49h-119.16v-144.94Z"/>
      <path class="cls-2" d="M105.89,23.7l3.03,34.79c16.64-13.11,35.17-23.45,55.59-31.01,20.42-7.56,42.22-11.35,65.42-11.35,26.72,0,51.81,5.05,75.25,15.13,23.45,10.09,43.87,23.82,61.26,41.22,17.39,17.4,31.13,37.82,41.22,61.26,10.08,23.45,15.13,48.53,15.13,75.25s-5.05,51.81-15.13,75.25c-10.09,23.45-23.83,43.87-41.22,61.26-17.39,17.4-37.82,31.14-61.26,41.22-23.45,10.08-48.53,15.13-75.25,15.13-19.67,0-38.45-2.78-56.35-8.32-17.9-5.55-34.41-13.37-49.54-23.45v198.16H0V23.7h105.89ZM291.56,175.34c-4.8-10.33-11.1-19.53-18.91-27.61-7.82-8.06-17.02-14.37-27.61-18.91-10.59-4.54-21.93-6.81-34.04-6.81s-23.33,2.27-33.66,6.81c-10.34,4.54-19.55,10.85-27.61,18.91-8.07,8.07-14.37,17.28-18.91,27.61-4.54,10.34-6.81,21.56-6.81,33.66s2.27,23.33,6.81,33.66c4.54,10.34,10.84,19.55,18.91,27.61,8.06,8.07,17.27,14.37,27.61,18.91,10.33,4.54,21.56,6.81,33.66,6.81s23.45-2.27,34.04-6.81c10.59-4.54,19.78-10.84,27.61-18.91,7.81-8.06,14.11-17.27,18.91-27.61,4.78-10.33,7.18-21.56,7.18-33.66s-2.4-23.32-7.18-33.66Z"/>
      <path class="cls-2" d="M448.13,120.13c10.33-23.45,24.83-43.87,43.49-61.26,18.65-17.4,40.84-31.13,66.56-41.22,25.71-10.08,53.95-15.13,84.71-15.13s58.99,5.05,84.71,15.13c25.72,10.09,47.9,23.82,66.56,41.22,18.65,17.4,33.15,37.82,43.49,61.26,10.33,23.45,15.5,48.53,15.5,75.25s-5.18,51.81-15.5,75.25c-10.34,23.45-24.84,43.87-43.49,61.26-18.66,17.4-40.84,31.14-66.56,41.22-25.72,10.08-53.96,15.13-84.71,15.13s-59-5.05-84.71-15.13c-25.72-10.08-47.91-23.82-66.56-41.22-18.66-17.4-33.16-37.82-43.49-61.26-10.34-23.45-15.5-48.52-15.5-75.25s5.16-51.81,15.5-75.25ZM560.83,227.53c4.28,10.34,10.21,19.55,17.77,27.61,7.56,8.07,16.76,14.37,27.61,18.91,10.84,4.54,22.56,6.81,35.17,6.81s24.96-2.27,35.55-6.81c10.59-4.54,19.67-10.84,27.23-18.91,7.56-8.06,13.49-17.27,17.77-27.61,4.28-10.33,6.43-21.56,6.43-33.66s-2.15-23.32-6.43-33.66c-4.29-10.33-10.21-19.53-17.77-27.61-7.56-8.06-16.64-14.37-27.23-18.91-10.59-4.54-22.44-6.81-35.55-6.81s-24.33,2.27-35.17,6.81c-10.85,4.54-20.04,10.85-27.61,18.91-7.56,8.07-13.5,17.28-17.77,27.61-4.29,10.34-6.43,21.56-6.43,33.66s2.14,23.33,6.43,33.66Z"/>
      <path class="cls-2" d="M1743.2,337.57c-5.55,5.05-13.61,10.59-24.2,16.64-10.59,6.05-22.95,11.61-37.06,16.64-14.12,5.05-29.5,9.19-46.14,12.48-16.64,3.27-33.54,4.92-50.67,4.92-28.74,0-55.21-4.92-79.41-14.75-24.2-9.83-45-23.45-62.4-40.84-17.39-17.4-31.01-37.82-40.84-61.26s-14.75-48.78-14.75-76.01,4.92-52.56,14.75-76.01c9.83-23.45,23.45-43.87,40.84-61.26,17.4-17.4,38.2-31.01,62.4-40.84,24.2-9.83,50.67-14.75,79.41-14.75,30.75,0,58.36,4.92,82.82,14.75,24.45,9.83,45.25,23.33,62.4,40.46,17.14,17.15,30.37,37.44,39.71,60.88,9.32,23.45,13.99,48.78,13.99,76.01,0,6.56-.51,13.37-1.51,20.42-1.02,7.07-2.02,13.61-3.03,19.66l-263.96-.76c3.52,9.08,8.06,16.77,13.61,23.07,5.54,6.31,11.97,11.61,19.28,15.88,7.3,4.29,15.25,7.32,23.83,9.08,8.57,1.77,17.39,2.65,26.47,2.65,13.11,0,24.58-1.25,34.41-3.78,9.83-2.52,18.15-5.41,24.96-8.7,6.81-3.27,12.22-6.55,16.26-9.83,4.03-3.27,6.81-5.67,8.32-7.18l60.5,82.44ZM1660.58,140.55c-3.29-7.3-7.82-13.61-13.61-18.91-5.8-5.29-12.86-9.57-21.18-12.86-8.32-3.27-24.77-4.92-35.36-4.92-9.58,0-18.53,1.26-26.85,3.78-8.32,2.53-15.88,6.31-22.69,11.34-6.81,5.05-12.61,11.35-17.39,18.91-4.8,7.56-8.45,16.39-10.97,26.47h153.73c-.51-8.57-2.4-16.51-5.67-23.82Z"/>
      <path class="cls-2" d="M1941.52,379.17h-124.79V8.57h105.89l5.29,50.67c7.56-10.59,15.88-20.29,24.96-29.12,9.08-8.82,19.29-15.75,30.63-20.8,11.34-5.03,23.69-8.06,37.06-9.08,13.35-1,27.85,1.02,43.49,6.05l-1.51,117.23c-13.61-5.54-27.49-9.08-41.6-10.59-14.12-1.51-27.11-.12-38.95,4.16-11.85,4.29-21.56,11.98-29.12,23.07-7.56,11.1-11.34,26.47-11.34,46.14v192.86Z"/>
      <path class="cls-2" d="M605.47,560.98c-1.51-1.51-4.42-4.03-8.7-7.56-4.29-3.52-9.45-7.05-15.5-10.59-6.05-3.52-13.12-6.55-21.18-9.08-8.07-2.52-16.64-3.78-25.72-3.78-5.55,0-10.34.51-14.37,1.51-4.04,1.02-7.18,2.53-9.45,4.54-2.27,2.02-3.91,4.04-4.92,6.05-1.02,2.02-1.51,4.29-1.51,6.81,0,3.03.63,5.8,1.89,8.32,1.25,2.53,3.27,4.67,6.05,6.43,2.77,1.77,5.92,3.53,9.45,5.29,3.52,1.77,7.56,3.4,12.1,4.92,13.11,4.54,28.86,8.96,47.27,13.24,18.4,4.29,35.93,10.47,52.56,18.53,16.64,8.07,30.75,18.91,42.35,32.52,11.59,13.61,17.39,32.27,17.39,55.97,0,18.66-3.91,35.81-11.72,51.43-7.82,15.63-19.04,29-33.66,40.09-14.63,11.1-32.4,19.79-53.32,26.09-20.93,6.3-44.51,9.45-70.72,9.45-17.15,0-33.79-1.13-49.92-3.4-16.14-2.27-31.14-5.67-45-10.21-13.87-4.54-26.6-10.08-38.19-16.64-11.61-6.55-21.68-13.86-30.25-21.93l73.36-82.44c2.01,2.02,5.67,4.92,10.97,8.7s11.84,7.56,19.67,11.35c7.81,3.78,16.64,7.18,26.47,10.21,9.83,3.03,20.29,4.54,31.39,4.54,9.08,0,17.64-1.25,25.72-3.78,8.06-2.52,12.1-7.81,12.1-15.88,0-2.52-.64-4.92-1.89-7.18-1.27-2.27-3.03-4.41-5.29-6.43-2.27-2.01-4.92-3.78-7.94-5.29-3.02-1.51-6.56-3.03-10.59-4.54-13.12-5.03-29.12-9.83-48.03-14.37-18.91-4.54-37.19-10.71-54.83-18.53-17.66-7.81-32.65-18.53-45-32.14-12.36-13.61-18.53-31.77-18.53-54.46,0-18.65,3.9-35.8,11.72-51.43,7.81-15.62,18.91-28.99,33.28-40.09,14.37-11.09,31.77-19.66,52.19-25.72,20.42-6.05,43.49-9.08,69.2-9.08,19.67,0,37.56,1.77,53.7,5.29,16.13,3.53,30.25,7.69,42.35,12.48,12.1,4.8,22.18,9.83,30.25,15.13,8.06,5.29,14.11,9.71,18.15,13.24l-73.36,82.44Z"/>
      <path class="cls-2" d="M846.73,456.61l3.03,34.79c16.64-13.11,35.17-23.45,55.59-31.01,20.42-7.56,42.22-11.35,65.42-11.35,26.72,0,51.81,5.05,75.25,15.13,23.45,10.09,43.87,23.82,61.26,41.22,17.39,17.4,31.13,37.82,41.22,61.26,10.08,23.45,15.13,48.53,15.13,75.25s-5.05,51.81-15.13,75.25c-10.09,23.45-23.83,43.87-41.22,61.26-17.39,17.4-37.82,31.14-61.26,41.22-23.45,10.08-48.53,15.13-75.25,15.13-19.67,0-38.45-2.78-56.35-8.32-17.9-5.55-34.41-13.37-49.54-23.45v198.16h-124.04V456.61h105.89ZM1032.41,608.25c-4.8-10.33-11.1-19.53-18.91-27.61-7.82-8.06-17.02-14.37-27.61-18.91-10.59-4.54-21.93-6.81-34.04-6.81s-23.33,2.27-33.66,6.81c-10.34,4.54-19.55,10.85-27.61,18.91-8.07,8.07-14.37,17.28-18.91,27.61-4.54,10.34-6.81,21.56-6.81,33.66s2.27,23.33,6.81,33.66c4.54,10.34,10.84,19.55,18.91,27.61,8.06,8.07,17.27,14.37,27.61,18.91,10.33,4.54,21.56,6.81,33.66,6.81s23.45-2.27,34.04-6.81c10.59-4.54,19.78-10.84,27.61-18.91,7.81-8.06,14.11-17.27,18.91-27.61,4.78-10.33,7.18-21.56,7.18-33.66s-2.4-23.32-7.18-33.66Z"/>
      <path class="cls-2" d="M1542.54,770.48c-5.55,5.05-13.61,10.59-24.2,16.64s-22.95,11.61-37.06,16.64c-14.12,5.05-29.5,9.19-46.14,12.48-16.64,3.27-33.54,4.92-50.67,4.92-28.74,0-55.21-4.92-79.41-14.75-24.2-9.83-45-23.45-62.4-40.84-17.39-17.4-31.01-37.82-40.84-61.26-9.83-23.45-14.75-48.78-14.75-76.01s4.92-52.56,14.75-76.01c9.83-23.45,23.45-43.87,40.84-61.26,17.4-17.4,38.2-31.01,62.4-40.84,24.2-9.83,50.67-14.75,79.41-14.75,30.75,0,58.36,4.92,82.82,14.75,24.45,9.83,45.25,23.33,62.4,40.46,17.14,17.15,30.37,37.44,39.71,60.88,9.32,23.45,13.99,48.78,13.99,76.01,0,6.56-.51,13.37-1.51,20.42-1.02,7.07-2.02,13.61-3.03,19.66l-263.96-.76c3.52,9.08,8.06,16.77,13.61,23.07,5.54,6.31,11.97,11.61,19.28,15.88,7.3,4.29,15.25,7.32,23.83,9.08,8.57,1.77,17.39,2.65,26.47,2.65,13.11,0,24.58-1.25,34.41-3.78,9.83-2.52,18.15-5.41,24.96-8.7,6.81-3.27,12.22-6.55,16.26-9.83,4.03-3.27,6.81-5.67,8.32-7.18l60.5,82.44ZM1459.91,573.46c-3.29-7.3-7.82-13.61-13.61-18.91-5.8-5.29-12.86-9.57-21.18-12.86-8.32-3.27-24.77-4.92-35.36-4.92-9.58,0-18.53,1.26-26.85,3.78-8.32,2.53-15.88,6.31-22.69,11.34-6.81,5.05-12.61,11.35-17.39,18.91-4.8,7.56-8.45,16.39-10.97,26.47h153.73c-.51-8.57-2.4-16.51-5.67-23.82Z"/>
      <path class="cls-2" d="M2137.77,812.08h-124.79V267.52h124.79v310.09l109.67-136.14h158.07l-139.17,145.97,151.27,224.63h-151.27l-92.27-142.19-36.3,39.33v102.86Z"/>
      <path class="cls-2" d="M844.32,7.07h123.83l35.34,205.94,54.4-205.94h113.13l54.4,205.94,34.34-205.94h123.83l-93.9,372.1h-131.52l-43.7-167.45-43.7,167.45h-131.52L844.32,7.07Z"/>
      <g>
        <path class="cls-2" d="M1136.45,1018.53c0,7.14-.55,14.08-1.64,20.83-1.09,6.75-3.72,12.79-7.88,18.15-4.17,5.35-10.41,9.62-18.74,12.79-8.33,3.17-19.83,4.76-34.51,4.76-10.51,0-19.98-.7-28.41-2.08-8.43-1.39-15.57-3.82-21.42-7.29-5.85-3.47-10.37-8.08-13.54-13.83-3.17-5.75-4.76-12.89-4.76-21.42,0-6.94,1.39-13.09,4.17-18.45,2.77-5.36,7.14-10.06,13.09-14.13,5.95-4.06,13.58-7.44,22.91-10.11,9.32-2.68,20.53-4.81,33.62-6.4l55.34-6.54,2.97,13.09-60.99,7.14c-6.75.79-13.39,1.99-19.93,3.57-6.54,1.59-12.4,3.77-17.55,6.54-5.16,2.78-9.32,6.25-12.49,10.41-3.18,4.16-4.76,9.12-4.76,14.88,0,4.17.64,8.03,1.93,11.6,1.29,3.57,3.82,6.69,7.59,9.37,3.77,2.68,9.02,4.81,15.77,6.4,6.74,1.59,15.57,2.38,26.48,2.38,12.5,0,22.56-1.53,30.2-4.61,7.63-3.07,13.54-6.79,17.7-11.16,4.17-4.36,6.99-8.93,8.48-13.69,1.49-4.76,2.23-8.82,2.23-12.2h4.17ZM1126.78,951c-3.47-5.55-7.84-9.72-13.09-12.5-5.26-2.78-10.96-4.51-17.11-5.21-6.15-.69-11.9-1.04-17.26-1.04-5.95,0-11.9.35-17.85,1.04-5.95.7-11.41,2.38-16.36,5.06-4.96,2.68-8.98,6.8-12.05,12.35-3.08,5.55-4.61,13.09-4.61,22.61h-14.88c0-9.72,1.49-18.1,4.46-25.14,2.98-7.04,7.29-12.84,12.94-17.4,5.65-4.56,12.5-7.93,20.53-10.12,8.03-2.18,17-3.27,26.92-3.27,11.5,0,21.52,1.24,30.05,3.72,8.53,2.48,15.62,6.1,21.27,10.86,5.65,4.76,9.92,10.71,12.79,17.85,2.87,7.14,4.31,15.37,4.31,24.69v96.09h-14.88v-96.39c0-9.92-1.74-17.65-5.21-23.2Z"/>
        <path class="cls-2" d="M1305.87,922.29c9.02,3.27,16.56,7.84,22.61,13.68,6.05,5.85,10.61,12.64,13.68,20.38,3.07,7.74,4.61,16.07,4.61,24.99h-14.88c0-6.94-1.09-13.39-3.27-19.34-2.18-5.95-5.65-11.16-10.41-15.62-4.76-4.46-10.81-7.93-18.15-10.41-7.34-2.48-16.06-3.72-26.18-3.72-8.92,0-17.16,1.09-24.69,3.27-7.54,2.18-13.98,5.8-19.34,10.86-5.35,5.06-9.52,11.6-12.5,19.63s-4.46,17.9-4.46,29.6,1.64,22.31,4.91,30.64,7.68,14.98,13.24,19.93c5.55,4.96,12.05,8.53,19.49,10.71,7.44,2.18,15.32,3.27,23.65,3.27,10.31,0,19.09-1.24,26.33-3.72,7.24-2.48,13.19-5.95,17.85-10.41,4.66-4.46,8.08-9.67,10.26-15.62,2.18-5.95,3.27-12.39,3.27-19.34h14.88c0,8.92-1.39,17.25-4.17,24.99-2.78,7.73-7.04,14.53-12.79,20.38-5.75,5.85-13.19,10.41-22.31,13.68-9.12,3.27-19.93,4.91-32.43,4.91-25.39,0-44.83-6.64-58.31-19.93-13.49-13.29-20.23-32.92-20.23-58.91s6.25-45.86,18.74-59.05c12.5-13.19,32.23-19.78,59.2-19.78,11.9,0,22.36,1.64,31.39,4.91Z"/>
        <path class="cls-2" d="M1518.43,1018.53c0,7.14-.55,14.08-1.64,20.83-1.09,6.75-3.72,12.79-7.88,18.15-4.17,5.35-10.41,9.62-18.74,12.79-8.33,3.17-19.83,4.76-34.51,4.76-10.51,0-19.98-.7-28.41-2.08-8.43-1.39-15.57-3.82-21.42-7.29-5.85-3.47-10.37-8.08-13.54-13.83-3.17-5.75-4.76-12.89-4.76-21.42,0-6.94,1.39-13.09,4.17-18.45,2.77-5.36,7.14-10.06,13.09-14.13,5.95-4.06,13.58-7.44,22.91-10.11,9.32-2.68,20.53-4.81,33.62-6.4l55.34-6.54,2.97,13.09-60.99,7.14c-6.75.79-13.39,1.99-19.93,3.57-6.54,1.59-12.4,3.77-17.55,6.54-5.16,2.78-9.32,6.25-12.49,10.41-3.18,4.16-4.76,9.12-4.76,14.88,0,4.17.64,8.03,1.93,11.6,1.29,3.57,3.82,6.69,7.59,9.37,3.77,2.68,9.02,4.81,15.77,6.4,6.74,1.59,15.57,2.38,26.48,2.38,12.5,0,22.56-1.53,30.2-4.61,7.63-3.07,13.54-6.79,17.7-11.16,4.17-4.36,6.99-8.93,8.48-13.69,1.49-4.76,2.23-8.82,2.23-12.2h4.17ZM1508.76,951c-3.47-5.55-7.84-9.72-13.09-12.5-5.26-2.78-10.96-4.51-17.11-5.21-6.15-.69-11.9-1.04-17.26-1.04-5.95,0-11.9.35-17.85,1.04-5.95.7-11.41,2.38-16.36,5.06-4.96,2.68-8.98,6.8-12.05,12.35-3.08,5.55-4.61,13.09-4.61,22.61h-14.88c0-9.72,1.49-18.1,4.46-25.14,2.98-7.04,7.29-12.84,12.94-17.4,5.65-4.56,12.5-7.93,20.53-10.12,8.03-2.18,17-3.27,26.92-3.27,11.5,0,21.52,1.24,30.05,3.72,8.53,2.48,15.62,6.1,21.27,10.86,5.65,4.76,9.92,10.71,12.79,17.85,2.87,7.14,4.31,15.37,4.31,24.69v96.09h-14.88v-96.39c0-9.92-1.74-17.65-5.21-23.2Z"/>
        <path class="cls-2" d="M1597.71,937.31c12.79-13.29,31.19-19.93,55.19-19.93,14.48,0,26.28,1.89,35.4,5.65,9.12,3.77,16.31,9.07,21.57,15.92,5.25,6.84,8.87,15.13,10.86,24.84,1.98,9.72,2.98,20.53,2.98,32.43,0,10.71-.89,20.83-2.68,30.34-1.79,9.52-5.21,17.85-10.26,24.99s-12.15,12.84-21.27,17.11c-9.12,4.26-20.93,6.4-35.4,6.4-10.71,0-20.68-1.69-29.9-5.06s-17.21-8.38-23.95-15.02c-6.75-6.64-12.05-14.88-15.92-24.69-3.87-9.82-5.8-21.17-5.8-34.06,0-25.98,6.4-45.62,19.19-58.91ZM1609.76,1043.81c9.92,10.91,24.59,16.36,44.03,16.36s35.05-5.45,45.07-16.36c10.01-10.91,15.02-26.87,15.02-47.9s-5.01-36.89-15.02-47.6c-10.02-10.71-25.04-16.07-45.07-16.07-11.11,0-20.43,1.34-27.96,4.02-7.54,2.68-13.59,6.69-18.15,12.05-4.56,5.35-7.84,12-9.82,19.93-1.98,7.93-2.98,17.16-2.98,27.67,0,21.03,4.96,36.99,14.88,47.9ZM1713.89,847.46h14.88v223.12h-14.88v-223.12Z"/>
        <path class="cls-2" d="M1936.12,1001.87h-16.36v-6.84c0-11.7-1.44-21.57-4.31-29.6-2.88-8.03-6.99-14.48-12.35-19.34-5.35-4.86-11.75-8.38-19.19-10.56-7.44-2.18-15.72-3.27-24.84-3.27s-16.81,1.34-24.25,4.02-13.94,6.69-19.49,12.05c-5.55,5.35-9.87,12-12.94,19.93-3.08,7.93-4.61,17.16-4.61,27.67,0,12.1,1.49,22.21,4.46,30.35,2.98,8.13,7.29,14.73,12.94,19.78,5.65,5.06,12.59,8.68,20.82,10.86,8.23,2.18,17.6,3.27,28.11,3.27,8.13,0,15.57-1.09,22.31-3.27,6.74-2.18,12.54-5.1,17.4-8.78,4.86-3.67,8.67-7.93,11.45-12.79,2.77-4.86,4.17-10.06,4.17-15.62l14.88.3c0,16.46-6,29.75-18,39.87-12,10.12-29.5,15.17-52.51,15.17-27.77,0-48.45-6.69-62.03-20.08-13.59-13.39-20.38-33.07-20.38-59.05s6.59-44.82,19.78-58.31c13.19-13.49,32.28-20.23,57.27-20.23,27.77,0,47.65,6.8,59.65,20.38,12,13.59,18,32.98,18,58.16v5.95ZM1791.24,986.99h131.2v14.88h-131.2v-14.88Z"/>
        <path class="cls-2" d="M1988.77,1070.59v-148.75h14.88v148.75h-14.88ZM2100.33,1070.59v-97.28c0-4.76-.65-9.57-1.93-14.43-1.29-4.86-3.62-9.27-6.99-13.24-3.38-3.96-8.03-7.19-13.98-9.67-5.95-2.48-13.59-3.72-22.91-3.72-17.06,0-29.8,5.36-38.23,16.07-8.43,10.71-12.64,26.58-12.64,47.6v2.68h-10.41v-2.38c0-11.9,1.04-22.71,3.12-32.43,2.08-9.71,5.6-18,10.56-24.84,4.96-6.84,11.4-12.15,19.34-15.92,7.93-3.76,17.65-5.65,29.16-5.65,10.51,0,19.53,1.49,27.07,4.46,7.53,2.97,13.73,6.84,18.59,11.6,4.86,4.76,8.43,10.22,10.71,16.36,2.28,6.15,3.42,12.5,3.42,19.04v101.75h-14.88ZM2211.9,1070.59v-85.68c0-7.74-.65-14.82-1.93-21.27-1.29-6.44-3.62-12-6.99-16.66-3.37-4.66-8.03-8.28-13.98-10.86-5.95-2.58-13.59-3.87-22.91-3.87-8.53,0-15.97,1.24-22.31,3.72-6.35,2.48-11.65,5.7-15.92,9.67-4.27,3.97-7.44,8.43-9.52,13.39-2.08,4.96-3.12,9.82-3.12,14.58v24.99h-14.88v-29.75c0-4.17,1.09-9.17,3.27-15.02,2.18-5.85,5.8-11.5,10.86-16.96,5.06-5.45,11.7-10.06,19.93-13.83,8.23-3.76,18.39-5.65,30.49-5.65,10.91,0,20.28,1.49,28.11,4.46,7.83,2.97,14.23,7.34,19.19,13.09,4.96,5.75,8.63,12.84,11.01,21.27,2.38,8.43,3.57,18.1,3.57,29.01v85.38h-14.88Z"/>
        <path class="cls-2" d="M2267.53,921.84h16.96l79.43,145.48-8.93,14.88-87.46-160.35ZM2352.76,1097.81c-3.27,8.82-6.94,16.31-11.01,22.46-4.07,6.15-8.83,10.81-14.28,13.98-5.46,3.17-12.35,4.76-20.68,4.76-6.55,0-12.2-1.44-16.96-4.31-4.76-2.88-8.63-6.89-11.6-12.05-2.97-5.16-5.16-11.26-6.54-18.3-1.39-7.04-2.08-14.63-2.08-22.76h14.88c0,8.72.64,15.87,1.93,21.42,1.29,5.55,2.97,9.92,5.06,13.09,2.08,3.17,4.56,5.3,7.44,6.4,2.87,1.09,5.8,1.64,8.78,1.64,4.76,0,8.93-1.04,12.5-3.12,3.57-2.08,6.69-4.86,9.37-8.33,2.68-3.47,5.01-7.54,6.99-12.2,1.98-4.66,3.87-9.57,5.65-14.73l57.42-163.92h15.47l-51.47,145.78c-3.97,11.3-7.59,21.37-10.86,30.2Z"/>
      </g>
    </g>
  </g>
</svg>