<?xml version="1.0" encoding="UTF-8"?>
<svg id="Layer_2" data-name="Layer 2" xmlns="http://www.w3.org/2000/svg" viewBox="0 0 2419.05 1002.16">
  <defs>
    <style>
      .cls-1 {
        fill: #1d2846;
        stroke: #1d2846;
        stroke-miterlimit: 10;
      }

      .cls-2 {
        fill: #2b3a67;
      }
    </style>
  </defs>
  <g id="Layer_1-2" data-name="Layer 1">
    <g>
      <path class="cls-2" d="M1841.86,672.53l-103.27,144.94h-152.92l182.05-255.34h-128.75c-4.94,0-8.94-4-8.94-8.94v-111.22h330.99v375.49h-119.16v-144.94Z"/>
      <path class="cls-1" d="M106.39,24.2l3.03,34.79c16.64-13.11,35.17-23.45,55.59-31.01,20.42-7.56,42.22-11.35,65.42-11.35,26.72,0,51.81,5.05,75.25,15.13,23.45,10.09,43.87,23.82,61.26,41.22,17.39,17.4,31.13,37.82,41.22,61.26,10.08,23.45,15.13,48.53,15.13,75.25s-5.05,51.81-15.13,75.25c-10.09,23.45-23.83,43.87-41.22,61.26-17.39,17.4-37.82,31.14-61.26,41.22-23.45,10.08-48.53,15.13-75.25,15.13-19.67,0-38.45-2.78-56.35-8.32-17.9-5.55-34.41-13.37-49.54-23.45v198.16H.5V24.2h105.89ZM292.06,175.84c-4.8-10.33-11.1-19.53-18.91-27.61-7.82-8.06-17.02-14.37-27.61-18.91-10.59-4.54-21.93-6.81-34.04-6.81s-23.33,2.27-33.66,6.81c-10.34,4.54-19.55,10.85-27.61,18.91-8.07,8.07-14.37,17.28-18.91,27.61-4.54,10.34-6.81,21.56-6.81,33.66s2.27,23.33,6.81,33.66c4.54,10.34,10.84,19.55,18.91,27.61,8.06,8.07,17.27,14.37,27.61,18.91,10.33,4.54,21.56,6.81,33.66,6.81s23.45-2.27,34.04-6.81c10.59-4.54,19.78-10.84,27.61-18.91,7.81-8.06,14.11-17.27,18.91-27.61,4.78-10.33,7.18-21.56,7.18-33.66s-2.4-23.32-7.18-33.66Z"/>
      <path class="cls-1" d="M448.63,120.63c10.33-23.45,24.83-43.87,43.49-61.26,18.65-17.4,40.84-31.13,66.56-41.22,25.71-10.08,53.95-15.13,84.71-15.13s58.99,5.05,84.71,15.13c25.72,10.09,47.9,23.82,66.56,41.22,18.65,17.4,33.15,37.82,43.49,61.26,10.33,23.45,15.5,48.53,15.5,75.25s-5.18,51.81-15.5,75.25c-10.34,23.45-24.84,43.87-43.49,61.26-18.66,17.4-40.84,31.14-66.56,41.22-25.72,10.08-53.96,15.13-84.71,15.13s-59-5.05-84.71-15.13c-25.72-10.08-47.91-23.82-66.56-41.22-18.66-17.4-33.16-37.82-43.49-61.26-10.34-23.45-15.5-48.52-15.5-75.25s5.16-51.81,15.5-75.25ZM561.33,228.03c4.28,10.34,10.21,19.55,17.77,27.61,7.56,8.07,16.76,14.37,27.61,18.91,10.84,4.54,22.56,6.81,35.17,6.81s24.96-2.27,35.55-6.81c10.59-4.54,19.67-10.84,27.23-18.91,7.56-8.06,13.49-17.27,17.77-27.61,4.28-10.33,6.43-21.56,6.43-33.66s-2.15-23.32-6.43-33.66c-4.29-10.33-10.21-19.53-17.77-27.61-7.56-8.06-16.64-14.37-27.23-18.91-10.59-4.54-22.44-6.81-35.55-6.81s-24.33,2.27-35.17,6.81c-10.85,4.54-20.04,10.85-27.61,18.91-7.56,8.07-13.5,17.28-17.77,27.61-4.29,10.34-6.43,21.56-6.43,33.66s2.14,23.33,6.43,33.66Z"/>
      <path class="cls-1" d="M1743.7,338.07c-5.55,5.05-13.61,10.59-24.2,16.64-10.59,6.05-22.95,11.61-37.06,16.64-14.12,5.05-29.5,9.19-46.14,12.48-16.64,3.27-33.54,4.92-50.67,4.92-28.74,0-55.21-4.92-79.41-14.75-24.2-9.83-45-23.45-62.4-40.84-17.39-17.4-31.01-37.82-40.84-61.26s-14.75-48.78-14.75-76.01,4.92-52.56,14.75-76.01c9.83-23.45,23.45-43.87,40.84-61.26,17.4-17.4,38.2-31.01,62.4-40.84,24.2-9.83,50.67-14.75,79.41-14.75,30.75,0,58.36,4.92,82.82,14.75,24.45,9.83,45.25,23.33,62.4,40.46,17.14,17.15,30.37,37.44,39.71,60.88,9.32,23.45,13.99,48.78,13.99,76.01,0,6.56-.51,13.37-1.51,20.42-1.02,7.07-2.02,13.61-3.03,19.66l-263.96-.76c3.52,9.08,8.06,16.77,13.61,23.07,5.54,6.31,11.97,11.61,19.28,15.88,7.3,4.29,15.25,7.32,23.83,9.08,8.57,1.77,17.39,2.65,26.47,2.65,13.11,0,24.58-1.25,34.41-3.78,9.83-2.52,18.15-5.41,24.96-8.7,6.81-3.27,12.22-6.55,16.26-9.83,4.03-3.27,6.81-5.67,8.32-7.18l60.5,82.44ZM1661.08,141.05c-3.29-7.3-7.82-13.61-13.61-18.91-5.8-5.29-12.86-9.57-21.18-12.86-8.32-3.27-24.77-4.92-35.36-4.92-9.58,0-18.53,1.26-26.85,3.78-8.32,2.53-15.88,6.31-22.69,11.34-6.81,5.05-12.61,11.35-17.39,18.91-4.8,7.56-8.45,16.39-10.97,26.47h153.73c-.51-8.57-2.4-16.51-5.67-23.82Z"/>
      <path class="cls-1" d="M1942.02,379.67h-124.79V9.07h105.89l5.29,50.67c7.56-10.59,15.88-20.29,24.96-29.12,9.08-8.82,19.29-15.75,30.63-20.8,11.34-5.03,23.69-8.06,37.06-9.08,13.35-1,27.85,1.02,43.49,6.05l-1.51,117.23c-13.61-5.54-27.49-9.08-41.6-10.59-14.12-1.51-27.11-.12-38.95,4.16-11.85,4.29-21.56,11.98-29.12,23.07-7.56,11.1-11.34,26.47-11.34,46.14v192.86Z"/>
      <path class="cls-1" d="M605.97,561.48c-1.51-1.51-4.42-4.03-8.7-7.56-4.29-3.52-9.45-7.05-15.5-10.59-6.05-3.52-13.12-6.55-21.18-9.08-8.07-2.52-16.64-3.78-25.72-3.78-5.55,0-10.34.51-14.37,1.51-4.04,1.02-7.18,2.53-9.45,4.54-2.27,2.02-3.91,4.04-4.92,6.05-1.02,2.02-1.51,4.29-1.51,6.81,0,3.03.63,5.8,1.89,8.32,1.25,2.53,3.27,4.67,6.05,6.43,2.77,1.77,5.92,3.53,9.45,5.29,3.52,1.77,7.56,3.4,12.1,4.92,13.11,4.54,28.86,8.96,47.27,13.24,18.4,4.29,35.93,10.47,52.56,18.53,16.64,8.07,30.75,18.91,42.35,32.52,11.59,13.61,17.39,32.27,17.39,55.97,0,18.66-3.91,35.81-11.72,51.43-7.82,15.63-19.04,29-33.66,40.09-14.63,11.1-32.4,19.79-53.32,26.09-20.93,6.3-44.51,9.45-70.72,9.45-17.15,0-33.79-1.13-49.92-3.4-16.14-2.27-31.14-5.67-45-10.21-13.87-4.54-26.6-10.08-38.19-16.64-11.61-6.55-21.68-13.86-30.25-21.93l73.36-82.44c2.01,2.02,5.67,4.92,10.97,8.7s11.84,7.56,19.67,11.35c7.81,3.78,16.64,7.18,26.47,10.21,9.83,3.03,20.29,4.54,31.39,4.54,9.08,0,17.64-1.25,25.72-3.78,8.06-2.52,12.1-7.81,12.1-15.88,0-2.52-.64-4.92-1.89-7.18-1.27-2.27-3.03-4.41-5.29-6.43-2.27-2.01-4.92-3.78-7.94-5.29-3.02-1.51-6.56-3.03-10.59-4.54-13.12-5.03-29.12-9.83-48.03-14.37-18.91-4.54-37.19-10.71-54.83-18.53-17.66-7.81-32.65-18.53-45-32.14-12.36-13.61-18.53-31.77-18.53-54.46,0-18.65,3.9-35.8,11.72-51.43,7.81-15.62,18.91-28.99,33.28-40.09,14.37-11.09,31.77-19.66,52.19-25.72,20.42-6.05,43.49-9.08,69.2-9.08,19.67,0,37.56,1.77,53.7,5.29,16.13,3.53,30.25,7.69,42.35,12.48,12.1,4.8,22.18,9.83,30.25,15.13,8.06,5.29,14.11,9.71,18.15,13.24l-73.36,82.44Z"/>
      <path class="cls-1" d="M847.23,457.11l3.03,34.79c16.64-13.11,35.17-23.45,55.59-31.01,20.42-7.56,42.22-11.35,65.42-11.35,26.72,0,51.81,5.05,75.25,15.13,23.45,10.09,43.87,23.82,61.26,41.22,17.39,17.4,31.13,37.82,41.22,61.26,10.08,23.45,15.13,48.53,15.13,75.25s-5.05,51.81-15.13,75.25c-10.09,23.45-23.83,43.87-41.22,61.26-17.39,17.4-37.82,31.14-61.26,41.22-23.45,10.08-48.53,15.13-75.25,15.13-19.67,0-38.45-2.78-56.35-8.32-17.9-5.55-34.41-13.37-49.54-23.45v198.16h-124.04V457.11h105.89ZM1032.91,608.75c-4.8-10.33-11.1-19.53-18.91-27.61-7.82-8.06-17.02-14.37-27.61-18.91-10.59-4.54-21.93-6.81-34.04-6.81s-23.33,2.27-33.66,6.81c-10.34,4.54-19.55,10.85-27.61,18.91-8.07,8.07-14.37,17.28-18.91,27.61-4.54,10.34-6.81,21.56-6.81,33.66s2.27,23.33,6.81,33.66c4.54,10.34,10.84,19.55,18.91,27.61,8.06,8.07,17.27,14.37,27.61,18.91,10.33,4.54,21.56,6.81,33.66,6.81s23.45-2.27,34.04-6.81c10.59-4.54,19.78-10.84,27.61-18.91,7.81-8.06,14.11-17.27,18.91-27.61,4.78-10.33,7.18-21.56,7.18-33.66s-2.4-23.32-7.18-33.66Z"/>
      <path class="cls-1" d="M1543.04,770.98c-5.55,5.05-13.61,10.59-24.2,16.64-10.59,6.05-22.95,11.61-37.06,16.64-14.12,5.05-29.5,9.19-46.14,12.48-16.64,3.27-33.54,4.92-50.67,4.92-28.74,0-55.21-4.92-79.41-14.75-24.2-9.83-45-23.45-62.4-40.84-17.39-17.4-31.01-37.82-40.84-61.26s-14.75-48.78-14.75-76.01,4.92-52.56,14.75-76.01c9.83-23.45,23.45-43.87,40.84-61.26,17.4-17.4,38.2-31.01,62.4-40.84,24.2-9.83,50.67-14.75,79.41-14.75,30.75,0,58.36,4.92,82.82,14.75,24.45,9.83,45.25,23.33,62.4,40.46,17.14,17.15,30.37,37.44,39.71,60.88,9.32,23.45,13.99,48.78,13.99,76.01,0,6.56-.51,13.37-1.51,20.42-1.02,7.07-2.02,13.61-3.03,19.66l-263.96-.76c3.52,9.08,8.06,16.77,13.61,23.07,5.54,6.31,11.97,11.61,19.28,15.88,7.3,4.29,15.25,7.32,23.83,9.08,8.57,1.77,17.39,2.65,26.47,2.65,13.11,0,24.58-1.25,34.41-3.78,9.83-2.52,18.15-5.41,24.96-8.7,6.81-3.27,12.22-6.55,16.26-9.83,4.03-3.27,6.81-5.67,8.32-7.18l60.5,82.44ZM1460.41,573.96c-3.29-7.3-7.82-13.61-13.61-18.91-5.8-5.29-12.86-9.57-21.18-12.86-8.32-3.27-24.77-4.92-35.36-4.92-9.58,0-18.53,1.26-26.85,3.78-8.32,2.53-15.88,6.31-22.69,11.34-6.81,5.05-12.61,11.35-17.39,18.91-4.8,7.56-8.45,16.39-10.97,26.47h153.73c-.51-8.57-2.4-16.51-5.67-23.82Z"/>
      <path class="cls-1" d="M2138.27,812.58h-124.79V268.02h124.79v310.09l109.67-136.14h158.07l-139.17,145.97,151.27,224.63h-151.27l-92.27-142.19-36.3,39.33v102.86Z"/>
      <path class="cls-1" d="M844.82,7.57h123.83l35.34,205.94,54.4-205.94h113.13l54.4,205.94,34.34-205.94h123.83l-93.9,372.1h-131.52l-43.7-167.45-43.7,167.45h-131.52L844.82,7.57Z"/>
    </g>
  </g>
</svg>