<?xml version="1.0" encoding="UTF-8"?>
<svg id="Layer_2" data-name="Layer 2" xmlns="http://www.w3.org/2000/svg" viewBox="0 0 7796.38 1383.32">
  <defs>
    <style>
      .cls-1 {
        fill: #ff2ecc;
      }

      .cls-2 {
        fill: #f4f4f4;
      }
    </style>
  </defs>
  <g id="Layer_1-2" data-name="Layer 1">
    <g>
      <path class="cls-1" d="M6714.01,759.79l-193.97,272.24h-287.23l341.94-479.6h-241.84c-9.27,0-16.79-7.52-16.79-16.79v-208.9h621.7v705.29h-223.81v-272.24Z"/>
      <path class="cls-2" d="M198.89,360.48l5.68,65.35c31.25-24.62,66.06-44.04,104.41-58.24,38.36-14.21,79.31-21.31,122.89-21.31,50.19,0,97.31,9.48,141.35,28.41,44.04,18.96,82.4,44.75,115.07,77.42,32.67,32.67,58.47,71.03,77.42,115.07,18.93,44.04,28.41,91.16,28.41,141.35s-9.48,97.31-28.41,141.35c-18.96,44.04-44.75,82.4-77.42,115.07-32.67,32.67-71.03,58.49-115.07,77.42-44.04,18.93-91.16,28.41-141.35,28.41-36.94,0-72.23-5.22-105.84-15.63-33.63-10.43-64.64-25.1-93.05-44.04v372.2H0V360.48h198.89ZM547.65,645.31c-9.01-19.4-20.85-36.69-35.52-51.85-14.69-15.14-31.96-26.99-51.85-35.51-19.89-8.52-41.2-12.79-63.93-12.79s-43.82,4.26-63.22,12.79c-19.42,8.52-36.71,20.38-51.85,35.51-15.16,15.16-26.99,32.45-35.52,51.85-8.52,19.42-12.78,40.49-12.78,63.22s4.26,43.82,12.78,63.22c8.52,19.42,20.36,36.71,35.52,51.85,15.14,15.16,32.43,26.99,51.85,35.52,19.4,8.52,40.49,12.79,63.22,12.79s44.04-4.26,63.93-12.79c19.89-8.52,37.16-20.36,51.85-35.52,14.67-15.14,26.5-32.43,35.52-51.85,8.99-19.4,13.49-40.49,13.49-63.22s-4.51-43.8-13.49-63.22Z"/>
      <path class="cls-2" d="M841.74,541.61c19.4-44.04,46.63-82.4,81.68-115.07,35.03-32.67,76.71-58.47,125.02-77.42,48.3-18.93,101.33-28.41,159.11-28.41s110.81,9.48,159.11,28.41c48.3,18.96,89.97,44.75,125.01,77.42,35.03,32.67,62.27,71.03,81.69,115.07,19.4,44.04,29.12,91.16,29.12,141.35s-9.72,97.31-29.12,141.35c-19.42,44.04-46.66,82.4-81.69,115.07-35.05,32.67-76.71,58.49-125.01,77.42-48.3,18.93-101.35,28.41-159.11,28.41s-110.81-9.48-159.11-28.41c-48.3-18.93-89.99-44.75-125.02-77.42-35.05-32.67-62.29-71.03-81.68-115.07-19.43-44.04-29.12-91.14-29.12-141.35s9.7-97.31,29.12-141.35ZM1053.41,743.33c8.03,19.42,19.18,36.71,33.38,51.85,14.21,15.16,31.48,26.99,51.86,35.51,20.36,8.52,42.37,12.79,66.06,12.79s46.88-4.26,66.77-12.79c19.89-8.52,36.94-20.35,51.14-35.51,14.21-15.14,25.33-32.43,33.39-51.85,8.03-19.4,12.07-40.49,12.07-63.22s-4.04-43.8-12.07-63.22c-8.06-19.4-19.18-36.69-33.39-51.85-14.2-15.14-31.25-26.99-51.14-35.52-19.89-8.52-42.15-12.79-66.77-12.79s-45.7,4.26-66.06,12.79c-20.38,8.52-37.65,20.38-51.86,35.52-14.2,15.16-25.35,32.45-33.38,51.85-8.06,19.42-12.07,40.49-12.07,63.22s4.02,43.82,12.07,63.22Z"/>
      <path class="cls-2" d="M3274.27,950.03c-10.43,9.48-25.57,19.89-45.46,31.25-19.89,11.37-43.11,21.8-69.61,31.25-26.53,9.48-55.41,17.27-86.66,23.44-31.25,6.15-63,9.23-95.18,9.23-53.98,0-103.7-9.23-149.16-27.7-45.46-18.47-84.52-44.04-117.2-76.71-32.67-32.67-58.24-71.03-76.71-115.07s-27.7-91.63-27.7-142.77,9.23-98.73,27.7-142.77c18.47-44.04,44.04-82.4,76.71-115.07,32.68-32.67,71.74-58.25,117.2-76.71,45.46-18.47,95.18-27.7,149.16-27.7,57.76,0,109.61,9.23,155.56,27.7,45.93,18.47,84.99,43.82,117.2,76,32.19,32.21,57.05,70.32,74.58,114.36,17.51,44.04,26.28,91.63,26.28,142.77,0,12.32-.95,25.1-2.84,38.36-1.91,13.27-3.8,25.57-5.68,36.94l-495.79-1.42c6.61,17.05,15.14,31.5,25.57,43.33,10.41,11.85,22.49,21.8,36.22,29.83,13.72,8.06,28.64,13.74,44.75,17.05,16.09,3.33,32.67,4.97,49.72,4.97,24.62,0,46.17-2.35,64.64-7.1,18.46-4.73,34.09-10.17,46.88-16.34,12.79-6.15,22.95-12.3,30.54-18.47,7.57-6.15,12.79-10.65,15.63-13.5l113.65,154.85ZM3119.08,579.96c-6.17-13.72-14.69-25.57-25.57-35.52-10.9-9.94-24.15-17.98-39.78-24.15-15.63-6.15-46.54-9.23-66.42-9.23-18,0-34.8,2.38-50.43,7.1-15.62,4.75-29.83,11.85-42.62,21.31-12.78,9.48-23.69,21.31-32.67,35.52-9.01,14.21-15.87,30.79-20.6,49.72h288.74c-.95-16.09-4.5-31.01-10.65-44.75Z"/>
      <path class="cls-2" d="M3646.77,1028.17h-234.4V332.07h198.89l9.94,95.18c14.21-19.89,29.83-38.11,46.88-54.69,17.05-16.56,36.23-29.59,57.54-39.07,21.31-9.46,44.5-15.14,69.61-17.05,25.08-1.89,52.32,1.91,81.68,11.37l-2.84,220.2c-25.57-10.41-51.63-17.05-78.13-19.89-26.53-2.84-50.92-.22-73.16,7.81-22.26,8.06-40.49,22.51-54.69,43.33-14.21,20.84-21.31,49.72-21.31,86.66v362.26Z"/>
      <path class="cls-2" d="M4392.62,551.2c-2.84-2.84-8.3-7.57-16.34-14.21-8.06-6.61-17.76-13.25-29.12-19.89-11.36-6.61-24.64-12.3-39.78-17.05-15.16-4.73-31.25-7.1-48.3-7.1-10.43,0-19.42.95-26.99,2.84-7.59,1.91-13.49,4.75-17.75,8.52-4.26,3.8-7.35,7.59-9.23,11.37-1.91,3.8-2.84,8.06-2.84,12.79,0,5.68,1.18,10.9,3.55,15.63,2.35,4.75,6.15,8.77,11.36,12.08,5.19,3.33,11.12,6.64,17.76,9.94,6.61,3.33,14.2,6.39,22.73,9.23,24.62,8.52,54.21,16.82,88.79,24.86,34.56,8.06,67.48,19.67,98.73,34.8,31.25,15.16,57.76,35.51,79.55,61.09,21.78,25.57,32.67,60.62,32.67,105.12,0,35.05-7.35,67.26-22.02,96.6-14.69,29.37-35.76,54.47-63.22,75.29-27.48,20.84-60.87,37.18-100.15,49.01-39.31,11.83-83.59,17.76-132.83,17.76-32.21,0-63.46-2.13-93.76-6.39-30.32-4.26-58.49-10.65-84.53-19.18-26.06-8.52-49.96-18.93-71.74-31.25-21.8-12.3-40.73-26.04-56.83-41.2l137.8-154.85c3.77,3.8,10.65,9.23,20.6,16.34s22.24,14.21,36.94,21.31c14.67,7.1,31.25,13.5,49.72,19.18,18.47,5.68,38.11,8.52,58.96,8.52,17.05,0,33.14-2.35,48.3-7.1,15.14-4.73,22.73-14.67,22.73-29.83,0-4.73-1.2-9.23-3.55-13.5-2.38-4.26-5.68-8.28-9.94-12.08-4.26-3.77-9.23-7.1-14.92-9.94-5.68-2.84-12.32-5.68-19.89-8.52-24.64-9.46-54.69-18.47-90.21-26.99-35.52-8.52-69.85-20.11-102.99-34.8-33.16-14.67-61.33-34.8-84.53-60.38-23.22-25.57-34.8-59.67-34.8-102.28,0-35.03,7.32-67.23,22.02-96.6,14.67-29.34,35.51-54.45,62.51-75.29,26.99-20.82,59.67-36.94,98.02-48.3,38.36-11.36,81.68-17.05,129.99-17.05,36.94,0,70.54,3.33,100.86,9.94,30.3,6.64,56.83,14.45,79.55,23.44,22.73,9.01,41.66,18.47,56.83,28.41,15.14,9.94,26.5,18.25,34.1,24.86l-137.8,154.85Z"/>
      <path class="cls-2" d="M4845.79,355.15l5.68,65.35c31.25-24.62,66.06-44.04,104.41-58.24,38.36-14.21,79.31-21.31,122.89-21.31,50.19,0,97.31,9.48,141.35,28.41,44.04,18.96,82.4,44.75,115.07,77.42,32.67,32.67,58.47,71.03,77.42,115.07,18.93,44.04,28.41,91.16,28.41,141.35s-9.48,97.31-28.41,141.35c-18.96,44.04-44.75,82.4-77.42,115.07-32.67,32.67-71.03,58.49-115.07,77.42-44.04,18.93-91.16,28.41-141.35,28.41-36.94,0-72.23-5.22-105.84-15.63-33.63-10.43-64.64-25.1-93.05-44.04v372.2h-232.98V355.15h198.89ZM5194.55,639.99c-9.01-19.4-20.85-36.69-35.52-51.85-14.69-15.14-31.96-26.99-51.85-35.51-19.89-8.52-41.2-12.79-63.93-12.79s-43.82,4.26-63.22,12.79c-19.42,8.52-36.71,20.38-51.85,35.51-15.16,15.16-26.99,32.45-35.52,51.85-8.52,19.42-12.78,40.49-12.78,63.22s4.26,43.82,12.78,63.22c8.52,19.42,20.36,36.71,35.52,51.85,15.14,15.16,32.43,26.99,51.85,35.52,19.4,8.52,40.49,12.79,63.22,12.79s44.04-4.26,63.93-12.79c19.89-8.52,37.16-20.36,51.85-35.52,14.67-15.14,26.5-32.43,35.52-51.85,8.99-19.4,13.49-40.49,13.49-63.22s-4.51-43.8-13.49-63.22Z"/>
      <path class="cls-2" d="M6152.72,944.71c-10.43,9.48-25.57,19.89-45.46,31.25-19.89,11.37-43.11,21.8-69.61,31.25-26.53,9.48-55.41,17.27-86.66,23.44-31.25,6.15-63,9.23-95.18,9.23-53.98,0-103.7-9.23-149.16-27.7-45.46-18.47-84.52-44.04-117.2-76.71-32.67-32.67-58.24-71.03-76.71-115.07s-27.7-91.63-27.7-142.77,9.23-98.73,27.7-142.77c18.47-44.04,44.04-82.4,76.71-115.07,32.68-32.67,71.74-58.25,117.2-76.71,45.46-18.47,95.18-27.7,149.16-27.7,57.76,0,109.61,9.23,155.56,27.7,45.93,18.47,84.99,43.82,117.2,76,32.19,32.21,57.05,70.32,74.58,114.36,17.51,44.04,26.28,91.63,26.28,142.77,0,12.32-.95,25.1-2.84,38.36-1.91,13.27-3.8,25.57-5.68,36.94l-495.79-1.42c6.61,17.05,15.14,31.5,25.57,43.33,10.41,11.85,22.49,21.8,36.22,29.83,13.72,8.06,28.64,13.74,44.75,17.05,16.09,3.33,32.67,4.97,49.72,4.97,24.62,0,46.17-2.35,64.64-7.1,18.46-4.73,34.09-10.17,46.88-16.34,12.79-6.15,22.95-12.3,30.54-18.47,7.57-6.15,12.79-10.65,15.63-13.5l113.65,154.85ZM5997.53,574.64c-6.17-13.72-14.69-25.57-25.57-35.52-10.9-9.94-24.15-17.98-39.78-24.15-15.63-6.15-46.54-9.23-66.42-9.23-18,0-34.8,2.38-50.43,7.1-15.62,4.75-29.83,11.85-42.62,21.31-12.78,9.48-23.69,21.31-32.67,35.52-9.01,14.21-15.87,30.79-20.6,49.72h288.74c-.95-16.09-4.5-31.01-10.65-44.75Z"/>
      <path class="cls-2" d="M7270.75,1022.84h-234.4V0h234.4v582.45l205.99-255.71h296.91l-261.4,274.18,284.12,421.92h-284.12l-173.31-267.08-68.19,73.87v193.2Z"/>
      <path class="cls-2" d="M1585.89,329.24h232.58l66.38,386.82,102.18-386.82h212.5l102.18,386.82,64.49-386.82h232.58l-176.38,698.92h-247.04l-82.09-314.51-82.09,314.51h-247.04l-178.26-698.92Z"/>
    </g>
  </g>
</svg>