<?xml version="1.0" encoding="UTF-8"?>
<svg id="Layer_2" data-name="Layer 2" xmlns="http://www.w3.org/2000/svg" viewBox="0 0 1543.13 1543.13">
  <defs>
    <style>
      .cls-1 {
        fill: #f4f4f4;
      }
    </style>
  </defs>
  <g id="Layer_1-2" data-name="Layer 1">
    <g>
      <path class="cls-1" d="M1354.25,0H188.88C84.56,0,0,84.56,0,188.88v1165.37c0,104.32,84.56,188.88,188.88,188.88h1165.37c104.31,0,188.88-84.56,188.88-188.88V188.88c0-104.31-84.56-188.88-188.88-188.88ZM1349.61,1355.42h-248.48v-302.25l-215.35,302.25h-318.89l379.63-532.46h-287.14v-250.57h690.23v783.03ZM1186.04,515.26c-90.34,0-163.57-73.23-163.57-163.57s73.23-163.57,163.57-163.57,163.57,73.23,163.57,163.57-73.23,163.57-163.57,163.57Z"/>
      <polygon class="cls-1" points="1198.1 874.57 1275.82 764.86 1230.1 764.86 1289.53 655.15 1198.1 655.15 1167.6 799.15 1214.1 799.15 1198.1 874.57"/>
    </g>
  </g>
</svg>